{
  "accessors": [
    {
      "bufferView": 2,
      "componentType": 5126,
      "count": 21754,
      "max": [
        0.37934771180152893,
        0.054821919649839401,
        0.28791981935501099
      ],
      "min": [
        -0.0300625991076231,
        -0.064596131443977356,
        -0.28791981935501099
      ],
      "type": "VEC3"
    },
    {
      "bufferView": 2,
      "byteOffset": 261048,
      "componentType": 5126,
      "count": 21754,
      "max": [
        0.99999779462814331,
        0.9999995231628418,
        1
      ],
      "min": [
        -0.99998897314071655,
        -0.9999428391456604,
        -1
      ],
      "type": "VEC3"
    },
    {
      "bufferView": 3,
      "componentType": 5126,
      "count": 21754,
      "max": [
        0.99999672174453735,
        0.99984103441238403,
        1,
        1
      ],
      "min": [
        -0.99999767541885376,
        -0.99999958276748657,
        -1,
        -1
      ],
      "type": "VEC4"
    },
    {
      "bufferView": 1,
      "componentType": 5126,
      "count": 21754,
      "max": [
        0.99760079383850098,
        0.99763059616088867
      ],
      "min": [
        0.0025588693097233772,
        0.004323944915086031
      ],
      "type": "VEC2"
    },
    {
      "bufferView": 0,
      "componentType": 5125,
      "count": 95730,
      "max": [
        21753
      ],
      "min": [
        0
      ],
      "type": "SCALAR"
    },
    {
      "bufferView": 2,
      "byteOffset": 522096,
      "componentType": 5126,
      "count": 2513,
      "max": [
        -0.023162193596363068,
        0.0598725825548172,
        0.059120245277881622
      ],
      "min": [
        -0.04980863630771637,
        -0.041640203446149826,
        -0.059400539845228195
      ],
      "type": "VEC3"
    },
    {
      "bufferView": 2,
      "byteOffset": 552252,
      "componentType": 5126,
      "count": 2513,
      "max": [
        0.99765604734420776,
        0.99916529655456543,
        0.9995463490486145
      ],
      "min": [
        -0.99997103214263916,
        -0.99939799308776855,
        -0.9995463490486145
      ],
      "type": "VEC3"
    },
    {
      "bufferView": 3,
      "byteOffset": 348064,
      "componentType": 5126,
      "count": 2513,
      "max": [
        0.99913573265075684,
        0.99730676412582397,
        1,
        1
      ],
      "min": [
        -0.99947822093963623,
        -0.99570149183273315,
        -1,
        -1
      ],
      "type": "VEC4"
    },
    {
      "bufferView": 1,
      "byteOffset": 174032,
      "componentType": 5126,
      "count": 2513,
      "max": [
        0.99385929107666016,
        0.76298457384109497
      ],
      "min": [
        0.013896060176193714,
        0.28553161025047302
      ],
      "type": "VEC2"
    },
    {
      "bufferView": 0,
      "byteOffset": 382920,
      "componentType": 5125,
      "count": 11784,
      "max": [
        2512
      ],
      "min": [
        0
      ],
      "type": "SCALAR"
    },
    {
      "bufferView": 2,
      "byteOffset": 582408,
      "componentType": 5126,
      "count": 7030,
      "max": [
        9.5022439956665039,
        5.0129342079162598,
        7.5566096305847168
      ],
      "min": [
        3.9229674339294434,
        4.2255187034606934,
        6.0528678894042969
      ],
      "type": "VEC3"
    },
    {
      "bufferView": 2,
      "byteOffset": 666768,
      "componentType": 5126,
      "count": 7030,
      "max": [
        0.75666463375091553,
        1,
        0.99999994039535522
      ],
      "min": [
        -0.99807757139205933,
        -1,
        -0.99999994039535522
      ],
      "type": "VEC3"
    },
    {
      "bufferView": 3,
      "byteOffset": 388272,
      "componentType": 5126,
      "count": 7030,
      "max": [
        1,
        3.3992924727499485e-05,
        0.75667423009872437,
        1
      ],
      "min": [
        -1,
        -3.5077082429779693e-05,
        -0.75666463375091553,
        1
      ],
      "type": "VEC4"
    },
    {
      "bufferView": 1,
      "byteOffset": 194136,
      "componentType": 5126,
      "count": 7030,
      "max": [
        0.9999997615814209,
        0.56844860315322876
      ],
      "min": [
        -1.9669532775878906e-06,
        0.43155115842819214
      ],
      "type": "VEC2"
    },
    {
      "bufferView": 0,
      "byteOffset": 430056,
      "componentType": 5125,
      "count": 38040,
      "max": [
        7029
      ],
      "min": [
        0
      ],
      "type": "SCALAR"
    },
    {
      "bufferView": 4,
      "componentType": 5126,
      "count": 201,
      "max": [
        6.6666665077209473
      ],
      "min": [
        0
      ],
      "type": "SCALAR"
    },
    {
      "bufferView": 6,
      "componentType": 5126,
      "count": 201,
      "max": [
        0.9968879222869873,
        0.085100993514060974,
        0.048323199152946472,
        0.99658781290054321
      ],
      "min": [
        -0.84039735794067383,
        -0.10083779692649841,
        -0.10097634792327881,
        -0.4988003671169281
      ],
      "type": "VEC4"
    },
    {
      "bufferView": 4,
      "byteOffset": 804,
      "componentType": 5126,
      "count": 201,
      "max": [
        6.6666665077209473
      ],
      "min": [
        0
      ],
      "type": "SCALAR"
    },
    {
      "bufferView": 5,
      "componentType": 5126,
      "count": 201,
      "max": [
        7.2374963760375977,
        4.6234025955200195,
        7.2341012954711914
      ],
      "min": [
        -7.1967802047729492,
        4.6234025955200195,
        -7.2001743316650391
      ],
      "type": "VEC3"
    },
    {
      "bufferView": 4,
      "byteOffset": 1608,
      "componentType": 5126,
      "count": 143,
      "max": [
        6.6666665077209473
      ],
      "min": [
        0
      ],
      "type": "SCALAR"
    },
    {
      "bufferView": 5,
      "byteOffset": 2412,
      "componentType": 5126,
      "count": 143,
      "max": [
        8.2756023406982422,
        8.2756004333496094,
        8.2756023406982422
      ],
      "min": [
        8.2755985260009766,
        8.2756004333496094,
        8.275599479675293
      ],
      "type": "VEC3"
    },
    {
      "bufferView": 4,
      "byteOffset": 2180,
      "componentType": 5126,
      "count": 201,
      "max": [
        6.6666665077209473
      ],
      "min": [
        0
      ],
      "type": "SCALAR"
    },
    {
      "bufferView": 6,
      "byteOffset": 3216,
      "componentType": 5126,
      "count": 201,
      "max": [
        0.08918481320142746,
        0.99601507186889648,
        0.08918481320142746,
        0.99601507186889648
      ],
      "min": [
        -0.076764881610870361,
        -0.85730946063995361,
        -0.044182494282722473,
        -0.49342966079711914
      ],
      "type": "VEC4"
    },
    {
      "bufferView": 4,
      "byteOffset": 2984,
      "componentType": 5126,
      "count": 201,
      "max": [
        6.6666665077209473
      ],
      "min": [
        0
      ],
      "type": "SCALAR"
    },
    {
      "bufferView": 6,
      "byteOffset": 6432,
      "componentType": 5126,
      "count": 201,
      "max": [
        3.2724074117140844e-08,
        0.99998968839645386,
        6.6578337509781704e-08,
        0.99998968839645386
      ],
      "min": [
        -6.6578337509781704e-08,
        -0.86304557323455811,
        -5.7460734836922711e-08,
        -0.49150726199150085
      ],
      "type": "VEC4"
    }
  ],
  "animations": [
    {
      "channels": [
        {
          "sampler": 0,
          "target": {
            "node": 8,
            "path": "rotation"
          }
        },
        {
          "sampler": 1,
          "target": {
            "node": 5,
            "path": "translation"
          }
        },
        {
          "sampler": 2,
          "target": {
            "node": 5,
            "path": "scale"
          }
        },
        {
          "sampler": 3,
          "target": {
            "node": 5,
            "path": "rotation"
          }
        },
        {
          "sampler": 4,
          "target": {
            "node": 12,
            "path": "rotation"
          }
        }
      ],
      "name": "Take 001",
      "samplers": [
        {
          "input": 15,
          "interpolation": "LINEAR",
          "output": 16
        },
        {
          "input": 17,
          "interpolation": "LINEAR",
          "output": 18
        },
        {
          "input": 19,
          "interpolation": "LINEAR",
          "output": 20
        },
        {
          "input": 21,
          "interpolation": "LINEAR",
          "output": 22
        },
        {
          "input": 23,
          "interpolation": "LINEAR",
          "output": 24
        }
      ]
    }
  ],
  "asset": {
    "extras": {
      "author": "Márcio N. (https://sketchfab.com/marcio3d)",
      "license": "CC-BY-4.0 (http://creativecommons.org/licenses/by/4.0/)",
      "source": "https://sketchfab.com/3d-models/aviao-loop-cd670480852f4d2f9d6f3dc83a72ffb5",
      "title": "Aviao Loop"
    },
    "generator": "Sketchfab-5.48.1",
    "version": "2.0"
  },
  "bufferViews": [
    {
      "buffer": 0,
      "byteLength": 582216,
      "byteOffset": 0,
      "name": "floatBufferViews",
      "target": 34963
    },
    {
      "buffer": 0,
      "byteLength": 250376,
      "byteOffset": 582216,
      "byteStride": 8,
      "name": "floatBufferViews",
      "target": 34962
    },
    {
      "buffer": 0,
      "byteLength": 751128,
      "byteOffset": 832592,
      "byteStride": 12,
      "name": "floatBufferViews",
      "target": 34962
    },
    {
      "buffer": 0,
      "byteLength": 500752,
      "byteOffset": 1583720,
      "byteStride": 16,
      "name": "floatBufferViews",
      "target": 34962
    },
    {
      "buffer": 0,
      "byteLength": 3788,
      "byteOffset": 2084472,
      "name": "floatBufferViews"
    },
    {
      "buffer": 0,
      "byteLength": 4128,
      "byteOffset": 2088260,
      "byteStride": 12,
      "name": "floatBufferViews"
    },
    {
      "buffer": 0,
      "byteLength": 9648,
      "byteOffset": 2092388,
      "byteStride": 16,
      "name": "floatBufferViews"
    }
  ],
  "buffers": [
    {
      "byteLength": 2102036,
      "uri": "scene.bin"
    }
  ],
  "images": [
    {
      "uri": "textures/13_-_Default_baseColor.jpeg"
    },
    {
      "uri": "textures/Material_27_baseColor.jpeg"
    }
  ],
  "materials": [
    {
      "doubleSided": true,
      "emissiveFactor": [
        0,
        0,
        0
      ],
      "name": "13_-_Default",
      "pbrMetallicRoughness": {
        "baseColorFactor": [
          1,
          1,
          1,
          1
        ],
        "baseColorTexture": {
          "index": 0,
          "texCoord": 0
        },
        "metallicFactor": 0,
        "roughnessFactor": 0.95770514949999996
      }
    },
    {
      "doubleSided": true,
      "emissiveFactor": [
        0,
        0,
        0
      ],
      "name": "13_-_Default_0",
      "pbrMetallicRoughness": {
        "baseColorFactor": [
          1,
          1,
          1,
          1
        ],
        "baseColorTexture": {
          "index": 0,
          "texCoord": 0
        },
        "metallicFactor": 0,
        "roughnessFactor": 0.95770514949999996
      }
    },
    {
      "doubleSided": true,
      "emissiveFactor": [
        0,
        0,
        0
      ],
      "name": "Material_27",
      "pbrMetallicRoughness": {
        "baseColorFactor": [
          1,
          1,
          1,
          1
        ],
        "baseColorTexture": {
          "index": 1,
          "texCoord": 0
        },
        "metallicFactor": 0,
        "roughnessFactor": 0.84863864529999999
      }
    }
  ],
  "meshes": [
    {
      "name": "aviao_13 - Default_0",
      "primitives": [
        {
          "attributes": {
            "NORMAL": 1,
            "POSITION": 0,
            "TANGENT": 2,
            "TEXCOORD_0": 3
          },
          "indices": 4,
          "material": 0,
          "mode": 4
        }
      ]
    },
    {
      "name": "mesh0.dat.desirefx.me_out_13 - Default_0",
      "primitives": [
        {
          "attributes": {
            "NORMAL": 6,
            "POSITION": 5,
            "TANGENT": 7,
            "TEXCOORD_0": 8
          },
          "indices": 9,
          "material": 1,
          "mode": 4
        }
      ]
    },
    {
      "name": "Plane003_Material #27_0",
      "primitives": [
        {
          "attributes": {
            "NORMAL": 11,
            "POSITION": 10,
            "TANGENT": 12,
            "TEXCOORD_0": 13
          },
          "indices": 14,
          "material": 2,
          "mode": 4
        }
      ]
    }
  ],
  "nodes": [
    {
      "children": [
        1
      ],
      "name": "RootNode (gltf orientation matrix)",
      "rotation": [
        -0.70710678118654746,
        -0,
        -0,
        0.70710678118654757
      ]
    },
    {
      "children": [
        2
      ],
      "name": "RootNode (model correction matrix)"
    },
    {
      "children": [
        3
      ],
      "matrix": [
        1,
        0,
        0,
        0,
        0,
        0,
        1,
        0,
        0,
        -1,
        0,
        0,
        0,
        0,
        0,
        1
      ],
      "name": "f1045013aac640738621faa40cf24322.fbx"
    },
    {
      "children": [
        4
      ],
      "name": ""
    },
    {
      "children": [
        5,
        12
      ],
      "name": "RootNode"
    },
    {
      "children": [
        6,
        8,
        11
      ],
      "name": "aviao",
      "rotation": [
        -0.063063167035579681,
        -0.7042890191078186,
        0.063063204288482666,
        0.70428907871246338
      ],
      "scale": [
        8.2756004333496094,
        8.2756004333496094,
        8.2756004333496094
      ],
      "translation": [
        7.2374963760375977,
        4.6234025955200195,
        0.016962811350822449
      ]
    },
    {
      "children": [
        7
      ],
      "matrix": [
        1,
        0,
        -0,
        0,
        0,
        1,
        0,
        0,
        0,
        0,
        1,
        0,
        -0.17464256286621094,
        0.0048871058970689774,
        -2.6127988661528434e-12,
        1
      ],
      "name": ""
    },
    {
      "mesh": 0,
      "name": "aviao_13 - Default_0"
    },
    {
      "children": [
        9
      ],
      "name": "mesh0.dat.desirefx.me_out",
      "rotation": [
        4.1119023842046878e-15,
        5.3296846170875108e-15,
        -0.10097634792327881,
        0.99488884210586548
      ],
      "translation": [
        -0.2089475691318512,
        0.030472099781036377,
        -0.00014013051986694336
      ]
    },
    {
      "children": [
        10
      ],
      "matrix": [
        0.97960754317648735,
        0.20092053491797796,
        -2.9807379989877735e-10,
        0,
        -0.20092053491797796,
        0.97960754317648735,
        -1.5461114007537234e-09,
        0,
        -1.86501868781011e-11,
        1.5744715380902092e-09,
        1,
        0,
        0.038746073842048645,
        -0.018170695751905441,
        0.00014014728367328644,
        1
      ],
      "name": ""
    },
    {
      "mesh": 1,
      "name": "mesh0.dat.desirefx.me_out_13 - Default_0"
    },
    {
      "name": "Line001",
      "rotation": [
        0.089108608663082123,
        0.99516421556472778,
        -0.003685833653435111,
        0.041161537170410156
      ],
      "scale": [
        0.12083700299263,
        0.12083700299263,
        0.12083700299263
      ],
      "translation": [
        0.23644895851612091,
        -0.0214080810546875,
        0.0021556615829467773
      ]
    },
    {
      "children": [
        13
      ],
      "name": "Plane003",
      "rotation": [
        -9.224712016475678e-08,
        0.31961596012115479,
        3.1115760634747858e-08,
        0.94754719734191895
      ],
      "translation": [
        -0.0080286264419555664,
        4.784696102142334,
        0.030753612518310547
      ]
    },
    {
      "children": [
        14
      ],
      "matrix": [
        1,
        0,
        -0,
        0,
        0,
        1,
        0,
        0,
        0,
        0,
        1,
        0,
        -5.0419468879699707,
        -4.619227409362793,
        -0.017466545104980469,
        1
      ],
      "name": ""
    },
    {
      "mesh": 2,
      "name": "Plane003_Material #27_0"
    }
  ],
  "samplers": [
    {
      "magFilter": 9729,
      "minFilter": 9987,
      "wrapS": 10497,
      "wrapT": 10497
    }
  ],
  "scene": 0,
  "scenes": [
    {
      "name": "OSG_Scene",
      "nodes": [
        0
      ]
    }
  ],
  "textures": [
    {
      "sampler": 0,
      "source": 0
    },
    {
      "sampler": 0,
      "source": 1
    }
  ]
}

